# xmcd CD database file
#
# Track frame offsets:
#	182
#	44282
#	103085
#	130045
#	156732
#
# Disc length: 2733 seconds
#
# Revision: 0
# Processed by: cddbd v1.4PL0 Copyright (c) Steve Scherf et al.
# Submitted via: CDex 1.50beta10
#
DISCID=400aab05
DTITLE=Charles Tyler - Voyage from jericho
DYEAR=1900
DGENRE=Jazz
TTITLE0=Voyage from Jericho
TTITLE1=Return to the east
TTITLE2=Just for two
TTITLE3=Children's music march
TTITLE4=Surf Ravin
EXTD=
EXTT0=
EXTT1=
EXTT2=
EXTT3=
EXTT4=
PLAYORDER=
